<?xml version="1.0" encoding="UTF-8" standalone="no"?>
<!-- Created with Inkscape (http://www.inkscape.org/) -->

<svg
   width="351.80078"
   height="358.84357"
   viewBox="0 0 351.80078 358.84357"
   version="1.1"
   id="svg1"
   xmlns="http://www.w3.org/2000/svg"
   xmlns:svg="http://www.w3.org/2000/svg">
  <defs
     id="defs1" />
  <g
     id="layer1"
     transform="translate(-74.099602,-70.578216)">
    <path
       style="fill:#ffffff;fill-opacity:1;stroke:#000000;stroke-width:14;stroke-linecap:butt;stroke-linejoin:round;stroke-dasharray:none;stroke-opacity:1"
       d="m 117.66438,77.577741 c 0,0.199163 -0.28721,74.653499 -0.29088,75.151539 -26.905288,31.96642 -36.2739,61.93828 -36.2739,113.41363 0,51.47535 31.58247,155.1824 170.00473,156.27068 138.42227,1.08828 167.79607,-104.35654 167.79607,-160.91235 0,-56.55581 -12.50608,-86.59851 -39.21391,-114.05175 0,-0.22911 -0.0351,-69.376765 -0.0351,-69.497978 -40.55852,19.379777 -48.07409,25.690698 -80.20895,49.411578 -35.32652,-9.26623 -67.99655,-9.25661 -100.33555,-0.15291 -33.93296,-23.96612 -41.45768,-27.997766 -81.44251,-49.632439 z"
       id="path1" />
  </g>
  <g
     id="layer2"
     transform="rotate(1.6209784,3644.1649,-2399.9776)">
    <path
       style="fill:none;fill-opacity:1;stroke:#000000;stroke-width:12;stroke-linecap:round;stroke-linejoin:round;stroke-dasharray:none;stroke-opacity:1"
       d="m 139.18282,206.45833 c 27.63815,13.36382 54.58935,12.29932 86.13093,11.40672"
       id="path4" />
    <path
       style="fill:none;fill-opacity:1;stroke:#000000;stroke-width:12;stroke-linecap:round;stroke-linejoin:round;stroke-dasharray:none;stroke-opacity:1"
       d="m 358.86869,200.24113 c -26.83816,14.90544 -53.80643,15.36681 -85.34801,16.2594"
       id="path4-5" />
    <path
       style="fill:#ffffff;fill-opacity:1;stroke:#000000;stroke-width:12;stroke-linecap:butt;stroke-linejoin:round;stroke-dasharray:none;stroke-opacity:1"
       d="m 133.90573,245.25695 c 14.40286,58.55014 87.97199,54.11707 91.85967,-2.44562 -29.76539,0.84233 -62.44013,1.61315 -91.85967,2.44569 z"
       id="path2-2-6" />
    <path
       style="fill:#000000;fill-opacity:1;stroke:none;stroke-width:17.3933;stroke-linecap:round;stroke-linejoin:round;stroke-dasharray:none;stroke-opacity:1"
       d="m 170.59312,284.53716 c -10.59332,-8.70059 0.62105,-21.62001 5.80542,-24.59557 7.86554,-4.51443 27.03146,-6.24254 34.78009,-3.68173 7.01332,2.3178 9.28177,9.36762 6.42548,17.08789 -3.83147,10.35606 -35.4755,20.66384 -47.01099,11.18941 z"
       id="path7-6-7-0" />
    <path
       style="fill:#ffffff;fill-opacity:1;stroke:#000000;stroke-width:12;stroke-linecap:butt;stroke-linejoin:round;stroke-dasharray:none;stroke-opacity:1"
       d="m 273.84976,241.2967 c 14.40286,58.55014 87.97196,54.11707 91.85964,-2.44562 -29.76539,0.84233 -62.44013,1.61315 -91.85964,2.44569 z"
       id="path2-2-6-9" />
    <path
       style="fill:#000000;fill-opacity:1;stroke:none;stroke-width:17.3933;stroke-linecap:round;stroke-linejoin:round;stroke-dasharray:none;stroke-opacity:1"
       d="m 310.53712,280.57691 c -10.59332,-8.70059 0.62105,-21.62001 5.80542,-24.59557 7.86554,-4.51443 27.03146,-6.24254 34.78009,-3.68173 7.01332,2.3178 9.28177,9.36762 6.42548,17.08789 -3.83147,10.35606 -35.4755,20.66384 -47.01099,11.18941 z"
       id="path7-6-7-0-2" />
  </g>
  <g
     id="layer3"
     style="display:inline"
     transform="translate(-74.099602,-70.578216)">
    <path
       style="fill:#000000;fill-opacity:1;stroke:none;stroke-width:15.6711;stroke-linecap:round;stroke-linejoin:round;stroke-dasharray:none;stroke-opacity:1"
       d="m 226.10208,274.94488 c 0,9.10539 15.94656,18.34582 25.88231,18.16574 9.96223,-0.18056 25.82573,-9.14946 25.82573,-18.26605 0,-3.7741 -11.38998,-7.23582 -25.75377,-7.23582 -14.42687,0 -25.95427,3.23995 -25.95427,7.33613 z"
       id="path8" />
  </g>
  <g
     id="layer4"
     transform="rotate(-1.3861245,-2692.5723,3348.0436)">
    <path
       style="fill:#ffffff;fill-opacity:1;stroke:#000000;stroke-width:12;stroke-linecap:round;stroke-linejoin:round;stroke-dasharray:none;stroke-opacity:1"
       d="m 131.25271,274.63377 c 92.22746,48.80768 146.39228,49.84784 242.94919,7.57157 -3.23351,133.63175 -246.22184,127.67765 -242.94919,-7.57157 z"
       id="path9" />
    <path
       style="fill:none;fill-opacity:1;stroke:#000000;stroke-width:8.44999;stroke-linecap:round;stroke-linejoin:round;stroke-dasharray:none;stroke-opacity:1"
       d="m 173.25044,296.84634 c -4.19231,22.15223 -6.34433,30.83885 -9.99179,49.73936"
       id="path10" />
    <path
       style="fill:none;fill-opacity:1;stroke:#000000;stroke-width:8.44999;stroke-linecap:round;stroke-linejoin:round;stroke-dasharray:none;stroke-opacity:1"
       d="m 210.27412,310.05266 c -6.10853,40.24365 -5.65489,37.38397 -8.56615,58.00098"
       id="path11" />
    <path
       style="fill:none;fill-opacity:1;stroke:#000000;stroke-width:8.44999;stroke-linecap:round;stroke-linejoin:round;stroke-dasharray:none;stroke-opacity:1"
       d="m 331.86712,300.68441 c 3.11599,22.32907 4.84535,31.10961 7.5744,50.16441"
       id="path10-9" />
    <path
       style="fill:none;fill-opacity:1;stroke:#000000;stroke-width:8.44999;stroke-linecap:round;stroke-linejoin:round;stroke-dasharray:none;stroke-opacity:1"
       d="m 294.24803,312.08459 c 4.15496,40.49199 3.84016,37.61372 5.75085,58.34741"
       id="path11-4" />
    <path
       style="fill:none;fill-opacity:1;stroke:#000000;stroke-width:8.44999;stroke-linecap:round;stroke-linejoin:round;stroke-dasharray:none;stroke-opacity:1"
       d="m 251.93765,318.87969 c -0.26749,20.94913 -0.83349,31.88279 -1.23727,54.3287"
       id="path12" />
    <path
       style="fill:none;fill-opacity:1;stroke:#000000;stroke-width:8.45;stroke-linecap:round;stroke-linejoin:round;stroke-dasharray:none;stroke-opacity:1"
       d="m 137.12931,303.87206 c 65.65608,55.56724 158.9247,58.86454 230.17139,6.26456"
       id="path15" />
  </g>
</svg>
