<?xml version="1.0" encoding="UTF-8" standalone="no"?>
<!-- Created with Inkscape (http://www.inkscape.org/) -->

<svg
   width="178.74329mm"
   height="18.059425mm"
   viewBox="0 0 178.74329 18.059425"
   version="1.1"
   id="svg1"
   xml:space="preserve"
   xmlns="http://www.w3.org/2000/svg"
   xmlns:svg="http://www.w3.org/2000/svg"><defs
     id="defs1" /><g
     id="layer2"
     transform="translate(-14.475649,-97.951919)"><g
       id="text1"
       style="font-weight:900;font-stretch:expanded;font-size:5.3186px;font-family:'Craft Gothic';-inkscape-font-specification:'Craft Gothic Heavy Expanded';text-align:center;letter-spacing:0.264583px;word-spacing:0px;text-anchor:middle;white-space:pre;inline-size:44.8907;stroke-width:0.703716;stroke-linecap:round;stroke-linejoin:round"
       transform="matrix(4.7756931,0,0,4.7756931,-209.04613,-591.4807)"
       aria-label="MEZZGURU"><path
         style="letter-spacing:-0.246063px"
         d="m 46.80405,148.02736 h 1.233916 v -2.27104 l 0.989259,2.27104 h 0.936074 l 0.98926,-2.27104 v 2.27104 h 1.233915 v -3.54751 h -1.675359 l -1.005216,2.33487 -0.994578,-2.33487 H 46.80405 Z"
         id="path1" /><path
         style="letter-spacing:0px"
         d="m 52.67438,148.02736 h 3.808118 v -0.79779 h -2.521016 v -0.57973 h 2.260405 v -0.79779 h -2.260405 v -0.57441 h 2.451874 v -0.79779 H 52.67438 Z"
         id="path2" /><path
         style="letter-spacing:0.0396875px"
         d="m 56.881392,148.02736 h 4.031499 v -0.86161 h -2.244449 l 2.244449,-1.92002 v -0.76588 h -3.850666 v 0.79779 h 2.138077 l -2.31891,1.9998 z m 4.422212,0 h 4.031499 v -0.86161 h -2.244449 l 2.244449,-1.92002 v -0.76588 h -3.850667 v 0.79779 h 2.138078 l -2.31891,1.9998 z"
         id="path3" /><path
         style="letter-spacing:-0.145521px"
         d="m 69.24141,148.02736 h 1.084994 v -2.09553 H 68.21492 v 0.79779 h 0.936073 c -0.11169,0.36167 -0.542497,0.61696 -1.031808,0.61696 -0.670144,0 -1.116906,-0.43081 -1.116906,-1.06904 0,-0.66483 0.473355,-1.11691 1.164773,-1.11691 0.335072,0 0.537179,0.0798 0.79779,0.31912 l 1.244553,-0.15424 c -0.127647,-0.26061 -0.249974,-0.40953 -0.436125,-0.5425 -0.388258,-0.27656 -0.941393,-0.42017 -1.606218,-0.42017 -1.499845,0 -2.473149,0.7712 -2.473149,1.95725 0,0.53718 0.212744,1.01585 0.595684,1.35092 0.366983,0.31912 0.83502,0.47336 1.451977,0.47336 0.64887,0 1.06372,-0.13829 1.499846,-0.51059 z m 5.784722,-3.54751 h -1.287101 v 2.06362 c 0,0.55845 -0.244655,0.79779 -0.808427,0.79779 -0.558453,0 -0.803109,-0.23934 -0.803109,-0.79779 v -2.06362 h -1.287101 v 2.10617 c 0,0.62759 0.164877,0.98926 0.563772,1.23391 0.313797,0.19679 0.898843,0.31912 1.526438,0.31912 0.558453,0 1.122225,-0.10105 1.430703,-0.26061 0.468037,-0.23934 0.664825,-0.61696 0.664825,-1.29242 z"
         id="path4" /><path
         style="letter-spacing:-0.206375px"
         d="m 75.582668,148.02736 h 1.287102 v -1.2871 h 0.712692 l 0.733967,1.2871 h 1.398792 l -0.882888,-1.40943 c 0.553134,-0.17551 0.792471,-0.48399 0.792471,-1.01585 0,-0.38826 -0.132965,-0.68078 -0.388257,-0.88821 -0.218063,-0.17019 -0.489312,-0.23402 -1.069039,-0.23402 h -2.58484 z m 1.287102,-2.08489 v -0.66483 h 0.999896 c 0.356347,0 0.49463,0.0904 0.49463,0.32976 0,0.23933 -0.138283,0.33507 -0.49463,0.33507 z m 7.361996,-1.46262 h -1.287102 v 2.06362 c 0,0.55845 -0.244655,0.79779 -0.808427,0.79779 -0.558453,0 -0.803108,-0.23934 -0.803108,-0.79779 v -2.06362 h -1.287102 v 2.10617 c 0,0.62759 0.164877,0.98926 0.563772,1.23391 0.313797,0.19679 0.898843,0.31912 1.526438,0.31912 0.558453,0 1.122225,-0.10105 1.430704,-0.26061 0.468036,-0.23934 0.664825,-0.61696 0.664825,-1.29242 z"
         id="path5" /></g></g></svg>
